<svg id="svg" version="1.1" xmlns="http://www.w3.org/2000/svg" xmlns:xlink="http://www.w3.org/1999/xlink" width="400" height="274.2857142857143" viewBox="0, 0, 400,274.2857142857143"><g id="svgg"><path id="path0" d="M139.319 128.052 C 136.716 130.853,136.238 144.595,138.659 147.018 L 139.651 148.011 149.044 148.152 C 159.474 148.308,160.359 148.455,162.574 150.399 C 163.716 151.402,163.715 151.385,162.657 152.706 C 162.186 153.292,161.316 154.760,160.723 155.967 C 159.514 158.429,158.553 159.549,156.440 160.961 C 155.644 161.493,154.862 162.172,154.703 162.470 C 154.543 162.768,153.992 163.478,153.477 164.047 L 152.542 165.083 154.918 165.275 C 157.828 165.512,158.776 165.967,160.899 168.146 C 161.792 169.063,163.300 170.268,164.251 170.823 C 165.201 171.379,166.621 172.409,167.405 173.111 L 168.831 174.388 168.265 175.191 C 167.517 176.252,166.473 178.326,166.687 178.326 C 166.780 178.326,167.184 178.106,167.585 177.836 C 167.985 177.567,168.664 177.169,169.094 176.953 C 169.523 176.736,170.523 175.859,171.315 175.003 C 172.107 174.148,173.396 172.988,174.178 172.426 C 175.743 171.302,176.780 169.934,177.831 167.612 C 178.211 166.775,179.106 165.430,179.822 164.624 C 181.608 162.613,182.194 161.189,183.271 156.241 C 183.567 154.883,184.245 152.167,184.779 150.206 C 188.070 138.107,187.024 131.107,181.472 128.059 L 180.110 127.310 160.065 127.304 L 140.020 127.298 139.319 128.052 M24.143 248.816 C 24.143 248.956,24.394 249.151,24.701 249.248 C 25.008 249.346,25.501 249.686,25.798 250.005 C 26.095 250.323,26.337 250.492,26.337 250.379 C 26.337 250.119,24.640 248.560,24.356 248.560 C 24.239 248.560,24.143 248.675,24.143 248.816 M375.240 248.991 C 374.825 249.216,374.486 249.527,374.486 249.681 C 374.486 249.836,374.856 249.744,375.309 249.476 C 376.557 248.739,376.496 248.309,375.240 248.991 " stroke="none" fill="#4d8bf5" fill-rule="evenodd"></path><path id="path1" d="M130.619 86.828 C 125.547 87.514,123.448 88.064,121.809 89.136 C 119.896 90.387,118.940 90.783,114.519 92.153 C 110.946 93.261,110.925 93.272,109.553 94.849 C 108.635 95.905,107.506 96.800,106.171 97.531 C 105.059 98.140,103.851 99.050,103.456 99.577 C 102.593 100.725,101.190 102.122,99.531 103.483 C 98.736 104.135,97.979 105.132,97.408 106.281 C 96.920 107.262,96.082 108.472,95.544 108.971 C 93.008 111.323,93.171 110.950,91.767 117.618 C 91.074 120.911,90.227 123.201,88.998 125.103 C 87.146 127.969,86.630 141.177,88.130 147.325 C 88.295 148.004,89.079 149.733,89.871 151.166 C 90.663 152.599,91.578 154.681,91.904 155.791 C 92.590 158.129,93.400 158.351,94.870 156.605 C 96.114 155.127,96.905 154.495,98.764 153.498 C 100.917 152.343,101.088 152.205,102.422 150.544 C 103.514 149.186,104.628 148.451,106.036 148.161 C 107.094 147.943,107.179 147.222,106.602 143.337 C 105.259 134.299,107.076 125.188,111.078 120.886 C 111.980 119.917,112.987 118.587,113.317 117.930 C 114.312 115.950,115.196 114.969,117.108 113.723 C 118.110 113.071,119.672 111.812,120.579 110.927 C 126.496 105.151,146.267 105.260,154.953 111.117 C 157.249 112.665,157.272 112.662,158.934 110.510 C 159.510 109.765,160.559 108.804,161.266 108.374 C 163.331 107.118,164.238 106.252,165.117 104.694 C 165.571 103.890,166.476 102.822,167.127 102.322 C 167.779 101.821,168.655 101.100,169.072 100.718 L 169.832 100.024 167.426 97.680 C 166.103 96.391,164.637 94.842,164.169 94.239 C 163.374 93.214,163.021 93.041,158.835 91.632 C 156.346 90.795,153.573 89.656,152.602 89.074 C 148.755 86.765,138.682 85.736,130.619 86.828 " stroke="none" fill="#ec4a3a" fill-rule="evenodd"></path><path id="path2" d="M29.053 10.412 C 27.756 10.686,26.437 11.048,26.122 11.217 C 25.800 11.389,24.223 11.523,22.515 11.523 L 19.479 11.523 18.496 12.598 C 17.232 13.981,13.976 17.236,12.614 18.480 L 11.555 19.446 11.440 22.686 C 11.363 24.846,11.134 26.583,10.755 27.896 C 9.057 33.771,9.005 37.709,9.127 151.440 C 9.236 252.860,9.256 254.933,10.179 261.178 C 10.737 264.954,11.269 265.933,14.441 269.029 C 17.241 271.762,17.284 271.822,17.284 273.076 L 17.284 274.348 200.000 274.348 L 382.716 274.348 382.716 273.076 C 382.716 271.822,382.759 271.762,385.559 269.029 C 388.731 265.933,389.263 264.954,389.821 261.178 C 390.744 254.933,390.764 252.860,390.873 151.440 C 390.995 37.709,390.943 33.771,389.245 27.896 C 388.866 26.583,388.637 24.846,388.560 22.686 L 388.445 19.446 387.386 18.480 C 386.024 17.236,382.764 13.976,381.520 12.614 L 380.554 11.555 377.314 11.440 C 374.902 11.354,373.548 11.157,372.016 10.669 L 369.959 10.014 200.686 9.964 C 38.041 9.916,31.321 9.933,29.053 10.412 M374.211 20.632 C 375.645 20.798,377.084 20.946,377.409 20.961 C 377.734 20.976,377.953 21.064,377.895 21.157 C 377.749 21.393,378.741 22.254,378.968 22.088 C 379.070 22.013,379.033 22.097,378.884 22.273 C 378.720 22.468,378.712 22.712,378.865 22.896 C 379.284 23.400,379.594 27.474,379.507 31.333 C 379.462 33.338,379.332 82.263,379.219 140.055 L 379.012 245.130 378.356 246.453 C 377.995 247.180,377.377 247.982,376.984 248.234 C 376.591 248.486,376.030 248.910,375.737 249.175 C 375.242 249.624,374.898 249.761,374.434 249.695 C 374.330 249.680,374.174 249.890,374.088 250.162 C 373.840 250.944,372.445 251.819,370.734 252.264 C 368.330 252.891,31.661 252.888,29.257 252.262 C 27.512 251.807,26.547 251.213,26.036 250.279 C 25.852 249.942,25.474 249.594,25.198 249.506 C 24.921 249.419,24.539 249.191,24.348 249.000 C 24.157 248.809,23.640 248.478,23.198 248.264 C 22.707 248.025,22.121 247.341,21.691 246.502 L 20.988 245.130 20.780 140.055 C 20.666 82.263,20.549 33.251,20.520 31.139 C 20.491 29.026,20.572 26.372,20.699 25.240 C 20.827 24.108,20.944 22.915,20.960 22.588 C 20.975 22.261,21.039 22.045,21.103 22.109 C 21.330 22.336,22.205 21.318,22.038 21.020 C 21.940 20.843,22.021 20.856,22.230 21.050 C 22.454 21.257,22.708 21.291,22.894 21.137 C 23.059 20.999,23.921 20.818,24.810 20.734 C 25.698 20.650,26.486 20.519,26.561 20.444 C 26.864 20.141,371.585 20.327,374.211 20.632 M106.036 148.130 C 104.577 148.485,103.497 149.207,102.422 150.544 C 101.084 152.210,100.920 152.341,98.713 153.525 C 97.074 154.403,94.376 156.720,94.376 157.249 C 94.376 157.360,93.975 157.526,93.484 157.618 L 92.593 157.784 92.680 160.367 L 92.767 162.949 94.498 164.680 C 95.450 165.632,96.610 167.147,97.075 168.048 C 98.144 170.112,98.535 170.568,100.480 172.010 C 101.348 172.653,102.058 173.275,102.058 173.391 C 102.058 173.967,104.654 176.380,106.046 177.099 C 106.915 177.548,108.317 178.634,109.162 179.512 C 111.059 181.483,111.269 181.594,115.472 182.836 C 119.228 183.946,120.075 184.318,121.632 185.542 C 126.171 189.109,146.957 189.060,153.786 185.466 C 155.186 184.730,157.939 183.608,159.904 182.973 C 164.100 181.617,165.007 180.978,166.425 178.379 C 166.975 177.369,167.737 176.054,168.118 175.456 L 168.809 174.369 167.394 173.102 C 166.616 172.404,165.201 171.379,164.251 170.823 C 163.300 170.268,161.792 169.063,160.899 168.146 C 157.922 165.090,154.855 164.469,149.520 165.843 C 137.726 168.878,125.549 167.670,120.585 162.971 C 119.497 161.941,118.117 160.849,117.519 160.544 C 116.038 159.788,114.806 158.473,113.780 156.552 C 113.307 155.666,112.297 154.303,111.535 153.523 C 110.774 152.743,109.472 151.155,108.642 149.994 C 107.812 148.833,107.071 147.893,106.996 147.906 C 106.920 147.919,106.488 148.020,106.036 148.130 " stroke="none" fill="#3aae58" fill-rule="evenodd"></path><path id="path3" d="M32.510 21.672 C 32.570 21.769,32.256 21.795,31.812 21.730 C 31.369 21.665,30.511 21.810,29.906 22.052 C 29.302 22.294,28.803 22.401,28.798 22.289 C 28.793 22.177,28.639 22.270,28.455 22.497 C 28.271 22.723,27.936 22.908,27.709 22.908 C 27.483 22.908,27.334 23.078,27.378 23.285 C 27.422 23.493,27.243 23.900,26.980 24.190 C 26.718 24.480,26.474 24.915,26.439 25.156 C 26.355 25.726,25.717 26.356,25.139 26.441 C 23.448 26.689,21.888 30.041,22.122 32.922 C 22.189 33.752,22.241 35.401,22.238 36.586 C 22.235 37.772,22.379 39.254,22.558 39.879 C 22.804 40.740,22.921 65.230,23.044 141.015 C 23.133 196.015,23.291 241.447,23.395 241.975 C 23.592 242.971,25.021 244.534,26.369 245.226 C 27.363 245.737,28.423 246.761,29.247 248.005 C 30.124 249.331,30.941 249.666,33.946 249.934 C 37.090 250.215,362.910 250.215,366.054 249.934 C 369.008 249.671,369.927 249.309,370.660 248.124 C 371.283 247.116,373.559 245.001,374.044 244.980 C 374.683 244.951,376.419 242.914,376.605 241.974 C 376.709 241.447,376.867 196.015,376.956 141.015 C 377.079 65.230,377.196 40.740,377.442 39.879 C 377.621 39.254,377.762 37.772,377.757 36.586 C 377.751 35.401,377.803 33.652,377.872 32.700 C 377.969 31.375,377.848 30.508,377.357 28.997 C 377.004 27.911,376.707 27.184,376.698 27.380 C 376.686 27.616,376.378 27.514,375.789 27.078 C 375.298 26.715,374.688 26.345,374.431 26.255 C 374.175 26.165,373.757 25.684,373.502 25.186 C 372.939 24.085,371.502 22.224,371.244 22.261 C 371.141 22.275,370.995 22.263,370.919 22.234 C 370.314 21.998,369.513 21.865,368.545 21.840 C 367.918 21.824,367.449 21.740,367.502 21.654 C 367.556 21.567,367.174 21.505,366.654 21.516 C 366.134 21.527,365.708 21.636,365.707 21.758 C 365.707 21.880,365.593 21.910,365.455 21.825 C 365.125 21.621,34.875 21.621,34.545 21.825 C 34.407 21.910,34.293 21.880,34.293 21.758 C 34.292 21.636,33.866 21.527,33.346 21.516 C 32.826 21.505,32.450 21.576,32.510 21.672 M145.679 83.681 C 155.462 84.054,158.336 84.813,159.928 87.445 C 160.669 88.670,160.792 88.729,164.993 89.863 C 166.794 90.349,168.038 91.377,168.336 92.626 C 168.589 93.692,169.171 94.310,170.117 94.518 C 174.621 95.507,174.365 103.570,169.782 105.064 C 168.364 105.527,168.355 105.536,167.896 107.213 C 167.240 109.610,166.526 110.265,163.810 110.961 C 162.663 111.255,162.574 111.350,162.114 112.769 C 160.583 117.482,150.603 117.294,148.160 112.506 C 147.267 110.756,146.924 110.700,137.174 110.700 C 127.238 110.700,127.055 110.732,125.789 112.686 C 124.831 114.164,121.413 116.375,119.305 116.881 C 117.756 117.253,117.301 117.713,116.873 119.342 C 115.899 123.045,114.306 125.688,112.495 126.606 C 110.641 127.545,110.559 128.023,110.577 137.776 C 110.594 146.865,110.721 147.598,112.482 148.766 C 113.751 149.609,115.644 152.731,116.415 155.253 L 117.035 157.283 118.884 157.882 C 119.901 158.212,121.069 158.752,121.478 159.082 C 121.887 159.412,122.785 160.107,123.472 160.625 C 124.160 161.143,124.889 161.877,125.092 162.256 C 125.933 163.828,128.101 164.173,137.174 164.182 C 147.180 164.192,149.573 163.791,151.715 161.746 C 153.133 160.392,154.013 159.885,156.044 159.251 C 158.132 158.598,158.980 157.768,159.668 155.701 C 159.990 154.733,160.614 153.409,161.055 152.759 C 162.119 151.189,162.165 151.282,159.739 150.124 L 157.613 149.108 148.371 148.971 L 139.130 148.834 138.265 148.011 C 136.522 146.353,136.495 146.213,136.491 138.820 C 136.488 130.861,136.801 129.099,138.542 127.269 L 139.558 126.200 160.116 126.200 L 180.674 126.200 182.608 127.127 C 188.703 130.048,190.030 140.874,185.630 151.787 C 185.097 153.110,184.270 155.939,183.793 158.074 C 182.703 162.948,182.494 163.436,180.621 165.473 C 179.695 166.480,178.736 167.917,178.190 169.116 C 177.372 170.911,175.216 173.388,174.471 173.388 C 174.355 173.388,173.920 174.283,173.506 175.377 C 172.760 177.345,171.574 178.815,169.736 180.050 C 169.336 180.320,168.617 181.137,168.139 181.868 C 167.086 183.476,166.329 183.951,163.933 184.507 C 161.748 185.014,159.945 185.702,159.945 186.028 C 159.945 186.613,158.174 188.189,156.904 188.736 C 153.990 189.989,152.220 190.161,140.741 190.307 C 123.122 190.532,120.112 190.136,117.314 187.226 C 116.007 185.867,115.736 185.720,113.306 185.065 C 111.872 184.678,110.253 184.238,109.708 184.088 C 108.268 183.690,107.287 182.807,106.574 181.267 C 105.978 179.981,105.852 179.881,104.082 179.285 C 102.197 178.651,101.779 178.302,99.497 175.462 C 99.069 174.930,98.265 174.239,97.709 173.927 C 96.430 173.208,95.556 171.936,94.959 169.925 C 94.522 168.452,94.393 168.296,93.038 167.595 C 91.368 166.733,90.996 166.316,90.374 164.609 C 89.195 161.378,88.502 159.946,88.044 159.801 C 86.662 159.363,84.937 156.459,84.324 153.541 C 83.783 150.960,83.486 130.825,83.907 125.240 C 84.327 119.682,85.638 116.239,87.809 114.993 C 88.611 114.532,89.012 113.463,89.724 109.886 C 90.123 107.880,91.243 106.623,93.064 106.136 L 94.293 105.807 94.630 104.112 C 95.053 101.987,95.774 100.919,98.579 98.263 C 99.004 97.860,99.904 97.008,100.579 96.369 C 101.456 95.540,102.255 95.085,103.373 94.780 C 105.493 94.201,105.702 94.059,105.973 93.014 C 106.514 90.923,107.449 90.229,110.620 89.563 C 113.829 88.889,114.597 88.592,114.979 87.879 C 115.545 86.821,118.574 84.826,120.347 84.343 C 121.790 83.950,126.388 83.705,137.037 83.453 C 137.942 83.432,141.831 83.535,145.679 83.681 " stroke="none" fill="#fcfcfc" fill-rule="evenodd"></path><path id="path4" d="M26.563 20.442 C 26.487 20.518,25.698 20.650,24.810 20.734 C 23.921 20.818,23.038 21.017,22.846 21.177 C 22.654 21.336,22.497 21.370,22.497 21.253 C 22.497 20.857,21.338 22.080,21.084 22.744 C 20.721 23.695,20.443 28.202,20.541 31.550 C 20.587 33.134,20.706 81.715,20.806 139.506 C 20.998 250.860,20.928 245.203,22.153 247.106 C 22.367 247.438,23.071 247.966,23.718 248.279 C 24.365 248.592,25.156 249.123,25.476 249.459 C 25.795 249.794,26.386 250.409,26.788 250.825 C 27.190 251.241,28.148 251.796,28.917 252.059 C 30.240 252.512,39.444 252.542,199.040 252.621 C 390.261 252.715,371.263 252.949,373.655 250.468 C 374.338 249.760,375.411 248.920,376.040 248.602 C 376.669 248.284,377.421 247.681,377.713 247.263 C 379.093 245.281,379.000 252.113,379.183 139.506 C 379.277 81.715,379.418 33.505,379.496 32.373 C 379.676 29.757,379.268 23.382,378.892 22.928 C 378.734 22.738,378.666 22.523,378.739 22.450 C 379.054 22.135,377.500 21.101,376.253 20.796 C 374.892 20.463,26.895 20.110,26.563 20.442 M34.293 21.758 C 34.293 21.880,34.407 21.910,34.545 21.825 C 34.875 21.621,365.125 21.621,365.455 21.825 C 365.593 21.910,365.707 21.880,365.707 21.758 C 365.708 21.636,366.134 21.527,366.654 21.516 C 367.174 21.505,367.556 21.567,367.502 21.654 C 367.449 21.740,367.918 21.824,368.545 21.840 C 369.513 21.865,370.314 21.998,370.919 22.234 C 370.995 22.263,371.141 22.275,371.244 22.261 C 371.502 22.224,372.939 24.085,373.502 25.186 C 373.757 25.684,374.175 26.165,374.431 26.255 C 374.688 26.345,375.298 26.715,375.789 27.078 C 376.378 27.514,376.686 27.616,376.698 27.380 C 376.707 27.184,377.004 27.911,377.357 28.997 C 377.848 30.508,377.969 31.375,377.872 32.700 C 377.803 33.652,377.751 35.401,377.757 36.586 C 377.762 37.772,377.621 39.254,377.442 39.879 C 377.196 40.740,377.079 65.230,376.956 141.015 C 376.867 196.015,376.709 241.447,376.605 241.974 C 376.419 242.914,374.683 244.951,374.044 244.980 C 373.559 245.001,371.283 247.116,370.660 248.124 C 369.927 249.309,369.008 249.671,366.054 249.934 C 362.910 250.215,37.090 250.215,33.946 249.934 C 30.941 249.666,30.124 249.331,29.247 248.005 C 28.423 246.761,27.363 245.737,26.369 245.226 C 25.021 244.534,23.592 242.971,23.395 241.975 C 23.291 241.447,23.133 196.015,23.044 141.015 C 22.921 65.230,22.804 40.740,22.558 39.879 C 22.379 39.254,22.235 37.772,22.238 36.586 C 22.241 35.401,22.189 33.752,22.122 32.922 C 21.888 30.041,23.448 26.689,25.139 26.441 C 25.717 26.356,26.355 25.726,26.439 25.156 C 26.474 24.915,26.718 24.480,26.980 24.190 C 27.243 23.900,27.422 23.493,27.378 23.285 C 27.334 23.078,27.483 22.908,27.709 22.908 C 27.936 22.908,28.271 22.723,28.455 22.497 C 28.639 22.270,28.793 22.177,28.798 22.289 C 28.803 22.401,29.302 22.294,29.906 22.052 C 30.511 21.810,31.369 21.665,31.812 21.730 C 32.256 21.795,32.570 21.769,32.510 21.672 C 32.450 21.576,32.826 21.505,33.346 21.516 C 33.866 21.527,34.292 21.636,34.293 21.758 M128.669 83.700 C 120.035 83.966,116.494 85.047,114.979 87.879 C 114.597 88.592,113.829 88.889,110.620 89.563 C 107.449 90.229,106.514 90.923,105.973 93.014 C 105.702 94.059,105.493 94.201,103.373 94.780 C 102.255 95.085,101.456 95.540,100.579 96.369 C 99.904 97.008,99.004 97.860,98.579 98.263 C 95.774 100.919,95.053 101.987,94.630 104.112 L 94.293 105.807 93.064 106.136 C 91.243 106.623,90.123 107.880,89.724 109.886 C 89.012 113.463,88.611 114.532,87.809 114.993 C 85.638 116.239,84.327 119.682,83.907 125.240 C 83.486 130.825,83.783 150.960,84.324 153.541 C 84.937 156.459,86.662 159.363,88.044 159.801 C 88.502 159.946,89.195 161.378,90.374 164.609 C 90.996 166.316,91.368 166.733,93.038 167.595 C 94.393 168.296,94.522 168.452,94.959 169.925 C 95.556 171.936,96.430 173.208,97.709 173.927 C 98.265 174.239,99.069 174.930,99.497 175.462 C 101.779 178.302,102.197 178.651,104.082 179.285 C 105.852 179.881,105.978 179.981,106.574 181.267 C 107.287 182.807,108.268 183.690,109.708 184.088 C 110.253 184.238,111.872 184.678,113.306 185.065 C 115.736 185.720,116.007 185.867,117.314 187.226 C 120.112 190.136,123.122 190.532,140.741 190.307 C 152.220 190.161,153.990 189.989,156.904 188.736 C 158.174 188.189,159.945 186.613,159.945 186.028 C 159.945 185.702,161.748 185.014,163.933 184.507 C 166.329 183.951,167.086 183.476,168.139 181.868 C 168.617 181.137,169.336 180.320,169.736 180.050 C 171.574 178.815,172.760 177.345,173.506 175.377 C 173.920 174.283,174.355 173.388,174.471 173.388 C 175.216 173.388,177.372 170.911,178.190 169.116 C 178.736 167.917,179.695 166.480,180.621 165.473 C 182.494 163.436,182.703 162.948,183.793 158.074 C 184.270 155.939,185.097 153.110,185.630 151.787 C 190.030 140.874,188.703 130.048,182.608 127.127 L 180.674 126.200 160.116 126.200 L 139.558 126.200 138.542 127.269 C 136.801 129.099,136.488 130.861,136.491 138.820 C 136.495 146.213,136.522 146.353,138.265 148.011 L 139.130 148.834 148.371 148.971 L 157.613 149.108 159.739 150.124 C 162.165 151.282,162.119 151.189,161.055 152.759 C 160.614 153.409,159.990 154.733,159.668 155.701 C 158.980 157.768,158.132 158.598,156.044 159.251 C 154.013 159.885,153.133 160.392,151.715 161.746 C 148.296 165.010,126.786 165.422,125.092 162.256 C 124.889 161.877,124.160 161.143,123.472 160.625 C 122.785 160.107,121.887 159.412,121.478 159.082 C 121.069 158.752,119.901 158.212,118.884 157.882 L 117.035 157.283 116.415 155.253 C 115.644 152.731,113.751 149.609,112.482 148.766 C 110.721 147.598,110.594 146.865,110.577 137.776 C 110.559 128.023,110.641 127.545,112.495 126.606 C 114.306 125.688,115.899 123.045,116.873 119.342 C 117.301 117.713,117.756 117.253,119.305 116.881 C 121.413 116.375,124.831 114.164,125.789 112.686 C 127.055 110.732,127.238 110.700,137.174 110.700 C 146.924 110.700,147.267 110.756,148.160 112.506 C 150.603 117.294,160.583 117.482,162.114 112.769 C 162.574 111.350,162.663 111.255,163.810 110.961 C 166.526 110.265,167.240 109.610,167.896 107.213 C 168.355 105.536,168.364 105.527,169.782 105.064 C 174.365 103.570,174.621 95.507,170.117 94.518 C 169.171 94.310,168.589 93.692,168.336 92.626 C 168.038 91.377,166.794 90.349,164.993 89.863 C 160.792 88.729,160.669 88.670,159.928 87.445 C 158.165 84.529,150.211 83.142,137.037 83.453 C 136.132 83.475,132.366 83.586,128.669 83.700 M148.197 87.340 C 149.863 87.769,151.505 88.416,152.602 89.074 C 153.573 89.656,156.346 90.795,158.835 91.632 C 163.021 93.041,163.374 93.214,164.169 94.239 C 164.637 94.842,166.103 96.391,167.426 97.680 L 169.832 100.024 169.072 100.718 C 168.655 101.100,167.779 101.821,167.127 102.322 C 166.476 102.822,165.571 103.890,165.117 104.694 C 164.238 106.252,163.331 107.118,161.266 108.374 C 160.559 108.804,159.510 109.765,158.934 110.510 C 157.272 112.662,157.249 112.665,154.953 111.117 C 146.267 105.260,126.496 105.151,120.579 110.927 C 119.672 111.812,118.110 113.071,117.108 113.723 C 115.196 114.969,114.312 115.950,113.317 117.930 C 112.987 118.587,111.980 119.917,111.078 120.886 C 107.109 125.152,105.236 134.459,106.584 143.210 C 106.805 144.643,106.988 146.251,106.991 146.782 C 106.996 147.853,109.345 151.312,111.673 153.676 C 112.360 154.374,113.308 155.668,113.781 156.553 C 114.806 158.473,116.039 159.789,117.519 160.544 C 118.117 160.849,119.497 161.941,120.585 162.971 C 124.475 166.653,134.820 168.519,143.484 167.100 C 150.943 165.879,153.089 165.036,154.487 162.777 C 154.784 162.298,155.670 161.476,156.457 160.950 C 158.553 159.549,159.516 158.424,160.723 155.967 C 161.316 154.760,162.186 153.292,162.657 152.706 C 163.715 151.385,163.716 151.402,162.574 150.399 C 160.359 148.455,159.474 148.308,149.044 148.152 L 139.651 148.011 138.659 147.018 C 136.238 144.595,136.716 130.853,139.319 128.052 L 140.020 127.298 160.065 127.304 L 180.110 127.310 181.472 128.059 C 187.024 131.107,188.070 138.107,184.779 150.206 C 184.245 152.167,183.567 154.883,183.271 156.241 C 182.194 161.189,181.608 162.613,179.822 164.624 C 179.106 165.430,178.211 166.775,177.831 167.612 C 176.780 169.934,175.743 171.302,174.178 172.426 C 173.396 172.988,172.104 174.151,171.308 175.011 C 170.513 175.870,169.284 176.871,168.578 177.234 C 167.873 177.597,167.005 178.207,166.649 178.590 C 163.644 181.832,163.850 181.698,159.982 182.948 C 157.974 183.596,155.186 184.730,153.786 185.466 C 146.957 189.060,126.171 189.109,121.632 185.542 C 120.075 184.318,119.228 183.946,115.472 182.836 C 111.269 181.594,111.059 181.483,109.162 179.512 C 108.317 178.634,106.915 177.548,106.046 177.099 C 104.654 176.380,102.058 173.967,102.058 173.391 C 102.058 173.275,101.348 172.653,100.480 172.010 C 98.535 170.568,98.144 170.112,97.075 168.048 C 96.610 167.147,95.441 165.624,94.479 164.662 L 92.730 162.912 92.727 160.674 C 92.723 157.799,91.683 154.367,89.796 151.001 C 89.043 149.658,88.293 148.004,88.128 147.325 C 86.631 141.151,87.147 127.968,88.998 125.103 C 90.227 123.201,91.074 120.911,91.767 117.618 C 93.171 110.950,93.008 111.323,95.544 108.971 C 96.082 108.472,96.920 107.262,97.408 106.281 C 97.979 105.132,98.736 104.135,99.531 103.483 C 101.190 102.122,102.593 100.725,103.456 99.577 C 103.851 99.050,105.059 98.140,106.171 97.531 C 107.506 96.800,108.635 95.905,109.553 94.849 C 110.925 93.272,110.946 93.261,114.519 92.153 C 118.940 90.783,119.896 90.387,121.809 89.136 C 125.721 86.578,141.163 85.527,148.197 87.340 " stroke="none" fill="#fcdcd4" fill-rule="evenodd"></path></g></svg>